<svg width="24" height="24" viewBox="0 0 24 24" fill="none" xmlns="http://www.w3.org/2000/svg">
<path fill-rule="evenodd" clip-rule="evenodd" d="M5.00001 9.3432L5.00001 9.33987L5 9.33091C5 8.81103 5.06588 8.30034 5.19482 7.80601C5.8862 5.09199 8.14629 3.16991 11.2835 3.01106C11.4197 3.0036 11.5509 3 11.6826 3L11.6996 3.00002L11.7249 3C16.0261 3 18.8599 6.331 18.4159 9.99083C18.0483 13.0206 15.828 16.3995 11.6871 20.0873C7.59738 16.7354 5.40607 13.3731 5.03546 10.0035C5.01152 9.78584 4.99968 9.56531 5.00001 9.3432ZM13.9102 9.33091C13.9102 10.4964 12.9129 11.4412 11.6826 11.4412C10.4524 11.4412 9.45509 10.4964 9.45509 9.33091C9.45509 8.16542 10.4524 7.22061 11.6826 7.22061C12.9129 7.22061 13.9102 8.16542 13.9102 9.33091Z" fill="#3AC5C9"/>
<mask id="mask0_462:988" style="mask-type:alpha" maskUnits="userSpaceOnUse" x="5" y="3" width="14" height="18">
<path fill-rule="evenodd" clip-rule="evenodd" d="M5.00001 9.3432L5.00001 9.33987L5 9.33091C5 8.81103 5.06588 8.30034 5.19482 7.80601C5.8862 5.09199 8.14629 3.16991 11.2835 3.01106C11.4197 3.0036 11.5509 3 11.6826 3L11.6996 3.00002L11.7249 3C16.0261 3 18.8599 6.331 18.4159 9.99083C18.0483 13.0206 15.828 16.3995 11.6871 20.0873C7.59738 16.7354 5.40607 13.3731 5.03546 10.0035C5.01152 9.78584 4.99968 9.56531 5.00001 9.3432ZM13.9102 9.33091C13.9102 10.4964 12.9129 11.4412 11.6826 11.4412C10.4524 11.4412 9.45509 10.4964 9.45509 9.33091C9.45509 8.16542 10.4524 7.22061 11.6826 7.22061C12.9129 7.22061 13.9102 8.16542 13.9102 9.33091Z" fill="white"/>
</mask>
<g mask="url(#mask0_462:988)">
</g>
</svg>
