<svg width="24" height="24" viewBox="0 0 24 24" fill="none" xmlns="http://www.w3.org/2000/svg">
<path fill-rule="evenodd" clip-rule="evenodd" d="M6 6.75C6 6.33579 6.33579 6 6.75 6H17.25C17.6642 6 18 6.33579 18 6.75C18 7.16421 17.6642 7.5 17.25 7.5H6.75C6.33579 7.5 6 7.16421 6 6.75ZM6 12.0833C6 11.6691 6.33579 11.3333 6.75 11.3333H17.25C17.6642 11.3333 18 11.6691 18 12.0833C18 12.4975 17.6642 12.8333 17.25 12.8333H6.75C6.33579 12.8333 6 12.4975 6 12.0833ZM6.75 16.6667C6.33579 16.6667 6 17.0025 6 17.4167C6 17.8309 6.33579 18.1667 6.75 18.1667H17.25C17.6642 18.1667 18 17.8309 18 17.4167C18 17.0025 17.6642 16.6667 17.25 16.6667H6.75Z" fill="#141619"/>
</svg>
