<svg width="24" height="24" viewBox="0 0 24 24" fill="none" xmlns="http://www.w3.org/2000/svg">
<path fill-rule="evenodd" clip-rule="evenodd" d="M17.6842 5H6.31579C4.48453 5 3 6.60522 3 8.58537V15.4146C3 17.3948 4.48453 19 6.31579 19H17.6842C19.5155 19 21 17.3948 21 15.4146V8.58537C21 6.60522 19.5155 5 17.6842 5ZM17.7039 6.53659C18.7395 6.53659 19.5789 7.46 19.5789 8.59909V15.4741C19.5789 16.6132 18.7395 17.5366 17.7039 17.5366H6.45395C5.41841 17.5366 4.57895 16.6132 4.57895 15.4741V8.59909C4.57895 7.46 5.41841 6.53659 6.45395 6.53659H17.7039ZM17.0253 16.0807C17.346 16.3428 17.8185 16.2953 18.0807 15.9746C18.319 15.6831 18.3014 15.2661 18.0553 14.9957L17.9747 14.9193L14.7092 12.25L17.9747 9.58068L18.0553 9.50425C18.3014 9.23388 18.319 8.81688 18.0807 8.52534C17.8185 8.20463 17.346 8.15717 17.0253 8.41932L11.995 12.53L6.97519 8.41975L6.88429 8.35582C6.57055 8.16812 6.15833 8.23348 5.91975 8.52481C5.65731 8.84527 5.70434 9.31781 6.02481 9.58025L9.28479 12.25L6.02481 14.9197C5.70434 15.1822 5.65731 15.6547 5.91975 15.9752C6.15833 16.2665 6.57055 16.3319 6.88429 16.1442L6.97519 16.0802L10.4688 13.2196L11.5197 14.0803L11.6159 14.1473C11.8827 14.3037 12.2239 14.2815 12.4696 14.0807L13.5236 13.2191L17.0253 16.0807Z" fill="#141619"/>
</svg>
