<svg width="24" height="24" viewBox="0 0 24 24" fill="none" xmlns="http://www.w3.org/2000/svg">
<path fill-rule="evenodd" clip-rule="evenodd" d="M15.4985 10.5019C15.4985 13.2633 13.2599 15.5019 10.4985 15.5019C7.73706 15.5019 5.49848 13.2633 5.49848 10.5019C5.49848 7.7405 7.73706 5.50192 10.4985 5.50192C13.2599 5.50192 15.4985 7.7405 15.4985 10.5019ZM14.7038 16.0985C13.5329 16.9796 12.0767 17.5019 10.4985 17.5019C6.63249 17.5019 3.49848 14.3679 3.49848 10.5019C3.49848 6.63593 6.63249 3.50192 10.4985 3.50192C14.3645 3.50192 17.4985 6.63593 17.4985 10.5019C17.4985 12.0684 16.984 13.5146 16.1147 14.681L20.21 18.7924C20.5998 19.1836 20.5985 19.8168 20.2072 20.2066C19.8159 20.5963 19.1828 20.5951 18.793 20.2038L14.7038 16.0985Z" fill="#ADB5C3"/>
</svg>
