<svg width="16" height="16" viewBox="0 0 16 16" fill="none" xmlns="http://www.w3.org/2000/svg">
<path d="M10.1053 6.026C9.89258 6.026 9.70312 5.89135 9.63315 5.69041L8.4722 2.35615C8.3164 1.9087 7.6836 1.9087 7.5278 2.35614L6.36685 5.69041C6.29688 5.89135 6.10742 6.026 5.89465 6.026H2.44986C1.97457 6.026 1.7674 6.62674 2.14165 6.91971L5.00336 9.15992C5.16873 9.28938 5.23558 9.50838 5.17069 9.70812L4.07245 13.0885C3.9228 13.5492 4.45003 13.9322 4.84188 13.6475L7.70611 11.5665C7.88135 11.4392 8.11865 11.4392 8.29389 11.5665L11.1581 13.6475C11.55 13.9322 12.0772 13.5492 11.9275 13.0885L10.8293 9.70812C10.7644 9.50838 10.8313 9.28938 10.9966 9.15992L13.8583 6.91971C14.2326 6.62674 14.0254 6.026 13.5501 6.026H10.1053Z" fill="#F6C741"/>
</svg>
